<?xml version="1.0" standalone="no"?>
<!DOCTYPE svg PUBLIC "-//W3C//DTD SVG 20010904//EN"
 "http://www.w3.org/TR/2001/REC-SVG-20010904/DTD/svg10.dtd">
<svg version="1.0" xmlns="http://www.w3.org/2000/svg"
 width="260.000000pt" height="260.000000pt" viewBox="0 0 260.000000 260.000000"
 preserveAspectRatio="xMidYMid meet">
<metadata>
Created by potrace 1.14, written by Peter Selinger 2001-2017
</metadata>
<g transform="translate(0.000000,260.000000) scale(0.100000,-0.100000)"
fill="#000000" stroke="none">
<path d="M1207 2484 c-26 -7 -65 -27 -85 -45 -43 -38 -102 -118 -102 -138 0
-8 -10 -43 -22 -78 -17 -53 -19 -70 -10 -96 41 -120 54 -153 67 -167 8 -9 15
-20 15 -24 0 -9 89 -117 132 -159 32 -32 38 -86 12 -108 -14 -11 -20 -8 -48
25 -28 34 -35 37 -53 27 -12 -6 -31 -11 -42 -11 -26 0 -131 -118 -169 -190
-16 -30 -32 -74 -36 -98 -3 -24 -13 -54 -22 -67 -9 -14 -19 -64 -25 -122 -4
-54 -17 -122 -29 -151 -11 -29 -20 -67 -20 -85 0 -17 -11 -50 -25 -72 -13 -22
-25 -46 -25 -54 0 -16 -87 -148 -104 -158 -6 -4 -115 -8 -241 -8 l-230 0 -43
-35 c-50 -42 -67 -90 -57 -167 5 -45 15 -64 56 -113 27 -32 61 -67 75 -77 15
-10 36 -27 48 -39 11 -12 32 -25 46 -29 14 -4 41 -17 60 -30 19 -13 53 -27 75
-31 22 -4 59 -18 82 -31 64 -37 278 -57 498 -47 180 8 329 9 670 3 259 -5 408
10 462 45 21 13 56 27 78 31 22 3 56 17 75 30 19 13 46 26 60 30 34 10 123 88
176 152 75 93 71 207 -8 273 l-43 35 -230 0 c-126 1 -235 4 -241 8 -17 10
-104 142 -104 158 0 8 -12 32 -25 54 -14 22 -25 55 -25 72 0 18 -9 56 -20 85
-12 29 -25 97 -29 151 -6 58 -16 108 -25 122 -9 13 -19 43 -22 67 -4 24 -20
68 -36 98 -38 72 -143 190 -169 190 -11 0 -30 5 -41 11 -19 10 -25 7 -51 -25
-31 -39 -51 -45 -61 -20 -14 36 -5 74 22 101 43 42 132 150 132 159 0 4 7 15
15 24 13 14 26 47 67 167 9 26 7 43 -10 96 -12 35 -22 70 -22 78 0 20 -59 100
-102 138 -62 55 -171 73 -271 45z m181 -153 c72 -57 92 -95 92 -174 0 -42 -5
-70 -13 -79 -8 -7 -20 -25 -27 -38 -25 -47 -124 -160 -140 -160 -9 0 -42 33
-74 73 -97 123 -106 140 -106 209 0 73 26 119 99 174 62 48 103 46 169 -5z
m-220 -760 c2 -14 -5 -31 -17 -42 -12 -11 -21 -28 -21 -37 0 -9 -11 -37 -24
-62 -13 -25 -27 -63 -30 -85 -4 -21 -16 -55 -26 -75 -9 -19 -21 -62 -24 -95
-4 -33 -15 -85 -23 -115 -20 -71 -20 -193 0 -295 8 -44 18 -107 22 -140 4 -40
12 -67 26 -81 13 -14 19 -32 17 -50 -2 -24 -7 -29 -27 -26 -13 1 -34 13 -46
26 -12 13 -33 27 -46 31 -13 4 -35 17 -49 30 -14 12 -42 28 -62 35 -40 12 -78
52 -78 81 0 9 11 31 25 47 14 17 25 34 25 39 0 5 11 24 24 41 13 18 26 52 29
77 4 25 15 62 25 83 11 20 22 66 25 102 3 36 13 85 22 110 9 24 20 74 25 110
13 89 69 209 127 271 49 52 76 59 81 20z m350 -26 c28 -30 58 -76 68 -102 10
-27 24 -57 31 -68 7 -12 17 -52 22 -91 6 -38 17 -89 25 -112 9 -24 20 -76 25
-116 5 -40 16 -87 25 -104 9 -17 19 -52 23 -77 3 -24 16 -59 29 -77 13 -17 24
-36 24 -41 0 -5 11 -22 25 -39 14 -16 25 -38 25 -47 0 -29 -38 -69 -78 -81
-20 -7 -48 -23 -62 -35 -14 -13 -36 -26 -49 -30 -13 -4 -34 -18 -46 -31 -12
-13 -33 -25 -46 -26 -20 -3 -25 2 -27 26 -2 18 4 36 18 51 16 17 23 42 30 107
5 47 14 105 21 129 17 63 15 213 -4 279 -8 30 -19 82 -23 115 -3 33 -14 76
-24 95 -9 19 -21 53 -24 75 -4 21 -19 59 -32 84 -13 25 -24 54 -24 64 0 9 -9
25 -20 34 -19 17 -27 53 -13 66 15 15 33 4 81 -48z m-182 -56 c6 -26 19 -57
28 -70 9 -13 16 -33 16 -45 0 -11 11 -42 25 -68 14 -26 25 -60 25 -75 0 -16
11 -59 25 -95 23 -62 25 -79 25 -239 0 -146 -3 -178 -19 -213 -10 -23 -22 -61
-26 -85 -11 -70 -94 -179 -135 -178 -39 0 -123 108 -134 174 -4 22 -16 64 -27
93 -16 44 -19 79 -19 217 0 151 2 170 25 231 14 36 25 79 25 95 0 15 11 49 25
75 14 26 25 56 25 67 0 11 9 34 19 51 10 17 22 47 26 66 10 47 13 52 38 48 15
-2 24 -15 33 -49z m-899 -921 c7 -5 17 -25 23 -44 20 -59 73 -71 134 -29 45
30 60 31 93 5 14 -11 33 -20 43 -20 9 0 37 -13 61 -30 24 -16 49 -30 56 -30 7
0 28 -13 46 -30 19 -16 39 -30 45 -30 6 0 23 -11 39 -24 15 -12 42 -27 58 -33
24 -8 30 -15 30 -39 l0 -29 -185 2 c-171 1 -191 3 -259 27 -41 14 -88 26 -105
26 -18 0 -50 13 -75 30 -24 17 -52 30 -62 30 -10 0 -34 14 -52 30 -19 17 -39
30 -44 30 -6 0 -31 17 -57 38 -73 59 -63 102 32 128 50 14 158 9 179 -8z
m1943 -6 c47 -23 54 -70 15 -96 -15 -10 -35 -26 -46 -37 -10 -10 -24 -19 -30
-19 -6 0 -27 -13 -46 -30 -18 -16 -42 -30 -52 -30 -10 0 -35 -12 -56 -26 -21
-14 -61 -29 -89 -34 -28 -5 -77 -18 -110 -30 -50 -18 -84 -21 -245 -23 l-186
-2 0 29 c0 24 6 31 30 39 17 6 43 21 58 33 16 13 34 24 41 24 7 0 21 10 32 21
10 12 38 30 62 40 24 10 50 25 58 34 8 8 32 19 53 25 21 5 44 17 51 25 18 22
44 19 86 -10 38 -26 78 -32 103 -16 8 5 24 29 35 53 19 39 25 44 66 49 60 9
127 1 170 -19z"/>
</g>
</svg>
